<svg width="200" height="200" viewBox="0 0 200 200" fill="none" xmlns="http://www.w3.org/2000/svg">
<mask id="path-1-inside-1_10653_604115" fill="white">
<path d="M100 -8.74228e-06C115.579 -7.38028e-06 130.943 3.64013 144.867 10.6301C158.79 17.6201 170.888 27.7666 180.195 40.2606C189.502 52.7545 195.761 67.2502 198.473 82.5918C201.185 97.9334 200.275 113.696 195.816 128.624C191.356 143.552 183.471 157.231 172.788 168.571C162.105 179.911 148.92 188.598 134.285 193.939C119.65 199.28 103.969 201.128 88.4929 199.336C73.0169 197.543 58.1739 192.159 45.1474 183.613L100 100L100 -8.74228e-06Z"/>
</mask>
<path d="M100 -8.74228e-06C115.579 -7.38028e-06 130.943 3.64013 144.867 10.6301C158.79 17.6201 170.888 27.7666 180.195 40.2606C189.502 52.7545 195.761 67.2502 198.473 82.5918C201.185 97.9334 200.275 113.696 195.816 128.624C191.356 143.552 183.471 157.231 172.788 168.571C162.105 179.911 148.92 188.598 134.285 193.939C119.65 199.28 103.969 201.128 88.4929 199.336C73.0169 197.543 58.1739 192.159 45.1474 183.613L100 100L100 -8.74228e-06Z" fill="#E8E8E8" stroke="white" stroke-width="2" mask="url(#path-1-inside-1_10653_604115)"/>
<mask id="path-2-inside-2_10653_604115" fill="white">
<path d="M45.0911 183.576C28.6816 172.795 15.8088 157.422 8.07799 139.374C0.34716 121.326 -1.89962 101.402 1.61781 82.0852L100 100L45.0911 183.576Z"/>
</mask>
<path d="M45.0911 183.576C28.6816 172.795 15.8088 157.422 8.07799 139.374C0.34716 121.326 -1.89962 101.402 1.61781 82.0852L100 100L45.0911 183.576Z" fill="#E8E8E8" stroke="white" stroke-width="2" mask="url(#path-2-inside-2_10653_604115)"/>
<mask id="path-3-inside-3_10653_604115" fill="white">
<path d="M1.59284 82.2228C4.53025 65.9625 11.4511 50.6835 21.7367 37.7517C32.0223 24.8199 45.352 14.6383 60.5342 8.11718L100 100L1.59284 82.2228Z"/>
</mask>
<path d="M1.59284 82.2228C4.53025 65.9625 11.4511 50.6835 21.7367 37.7517C32.0223 24.8199 45.352 14.6383 60.5342 8.11718L100 100L1.59284 82.2228Z" fill="#E8E8E8" stroke="white" stroke-width="2" mask="url(#path-3-inside-3_10653_604115)"/>
<mask id="path-4-inside-4_10653_604115" fill="white">
<path d="M60.545 8.11257C73.0149 2.75818 86.4441 -0.00203935 100.015 -8.74097e-06L100 100L60.545 8.11257Z"/>
</mask>
<path d="M60.545 8.11257C73.0149 2.75818 86.4441 -0.00203935 100.015 -8.74097e-06L100 100L60.545 8.11257Z" fill="#E8E8E8" stroke="white" stroke-width="2" mask="url(#path-4-inside-4_10653_604115)"/>
</svg>
